<svg xmlns="http://www.w3.org/2000/svg" width="1040" height="280" viewBox="0 0 1040 280" role="img" aria-labelledby="title desc">
  <title id="title">AI Commute</title>
  <desc id="desc">AI Commute project logo placeholder</desc>
  <rect width="1040" height="280" rx="0" fill="#f7f9fb"/>
  <path d="M0 219L1040 63" stroke="#dbe6ff" stroke-width="18" opacity="0.62"/>
  <path d="M96 0L214 280" stroke="#dbe6ff" stroke-width="18" opacity="0.5"/>
  <path d="M764 0L586 280" stroke="#e3e8f3" stroke-width="14" opacity="0.8"/>
  <circle cx="295" cy="140" r="42" fill="#2563eb"/>
  <path d="M295 78C272 78 253 97 253 120c0 36 42 82 42 82s42-46 42-82c0-23-19-42-42-42zm0 61a20 20 0 110-40 20 20 0 010 40z" fill="#ffffff"/>
  <text x="360" y="126" font-family="Inter, Arial, sans-serif" font-size="70" font-weight="800" fill="#191c1e">AI Commute</text>
  <text x="363" y="179" font-family="Inter, Arial, sans-serif" font-size="22" font-weight="700" letter-spacing="8" fill="#2563eb">PERSONAL AI COMMUTE PLANNER</text>
</svg>
